<svg xmlns="http://www.w3.org/2000/svg" viewBox="0 0 1200 600"><path fill="#00008b" d="M0 0h1200v600H0z"/><path d="M0 0h600v300H0z" fill="#00008b"/><path d="m250 0 100 300L250 0h100L250 300h100zM0 125l600 50v50L0 175v-50z" fill="#fff"/><path d="m283.3 0 33.4 300L283.3 0h33.4L283.3 300h33.4zM0 141.7l600 16.6v33.4L0 175v-33.3z" fill="#cc0000"/><path fill="#fff" d="m150 250-50-16.7V100h33.3l33.4 50 33.3-50H233.3v133.3L183.3 250l-33.3-25-33.4 25zm0-50L116.7 66.7h66.6L150 200z"/><path fill="#cc0000" d="m150 212.5-25-18.8v-50h16.7l25 37.5 25-37.5h16.6v50l-25 18.8-16.6-12.5-16.7 12.5zM150 100l-50 75h100L150 100z"/><path d="M750 112.5 735.6 75l-14.4 37.5h43.2L750 150l14.4-37.5zM975 112.5l-14.4-37.5-14.4 37.5h43.2L975 150l14.4-37.5zM862.5 206.2l-14.4-37.5-14.4 37.5h43.2L862.5 243.8l14.4-37.6zM862.5 443.8l-14.4-37.5-14.4 37.5h43.2L862.5 481.2l14.4-37.4zM750 506.2l-14.4-37.5-14.4 37.5h43.2L750 543.8l14.4-37.6zM975 506.2l-14.4-37.5-14.4 37.5h43.2L975 543.8l14.4-37.6z" fill="#fff"/><path d="M450 487.5 437.2 456l-12.8 31.5h38.4L450 519l12.8-31.5z" fill="#fff"/></svg>