<svg xmlns="http://www.w3.org/2000/svg" viewBox="0 0 900 600"><path fill="#003399" d="M0 0h900v600H0z"/><path d="m450 120-19 59h-62l50 36-19 59 50-36 50 36-19-59 50-36h-62l-19-59zm-150 90-19 59h-62l50 36-19 59 50-36 50 36-19-59 50-36h-62l-19-59zm300 0-19 59h-62l50 36-19 59 50-36 50 36-19-59 50-36h-62l-19-59zm-150 90-19 59h-62l50 36-19 59 50-36 50 36-19-59 50-36h-62l-19-59zm-212-45-19 59h-62l50 36-19 59 50-36 50 36-19-59 50-36h-62l-19-59zm424 0-19 59h-62l50 36-19 59 50-36 50 36-19-59 50-36h-62l-19-59zM212 375l-19 59h-62l50 36-19 59 50-36 50 36-19-59 50-36h-62l-19-59zm424 0-19 59h-62l50 36-19 59 50-36 50 36-19-59 50-36h-62l-19-59zM150 255l-19 59h-62l50 36-19 59 50-36 50 36-19-59 50-36h-62l-19-59zm600 0-19 59h-62l50 36-19 59 50-36 50 36-19-59 50-36h-62l-19-59z" fill="#ffcc00"/></svg>