<svg xmlns="http://www.w3.org/2000/svg" viewBox="0 0 1200 600"><path fill="#00008b" d="M0 0h1200v600H0z"/><path d="M0 0h600v300H0z" fill="#00008b"/><path d="m250 0 100 300L250 0h100L250 300h100zM0 125l600 50v50L0 175v-50z" fill="#fff"/><path d="m283.3 0 33.4 300L283.3 0h33.4L283.3 300h33.4zM0 141.7l600 16.6v33.4L0 175v-33.3z" fill="#cc0000"/><path fill="#fff" d="m150 250-50-16.7V100h33.3l33.4 50 33.3-50H233.3v133.3L183.3 250l-33.3-25-33.4 25zm0-50L116.7 66.7h66.6L150 200z"/><path fill="#cc0000" d="m150 212.5-25-18.8v-50h16.7l25 37.5 25-37.5h16.6v50l-25 18.8-16.6-12.5-16.7 12.5zM150 100l-50 75h100L150 100z"/><g fill="#cc0000"><path d="M825 110V90h-50v20h50v50h20v-50h50V90h-50V40h-20v50z"/><path d="M1025 110V90h-50v20h50v50h20v-50h50V90h-50V40h-20v50z"/><path d="M825 460v-20h-50v20h50v50h20v-50h50v-20h-50v-50h-20v50z"/><path d="M1025 285v-20h-50v20h50v50h20v-50h50v-20h-50v-50h-20v50z"/></g><g fill="#fff"><path d="m825 102-42-8h84z"/><path d="m825 118-42 8h84z"/><path d="m807 137-8-42v84z"/><path d="m843 137 8-42v84z"/><path d="m1025 102-42-8h84z"/><path d="m1025 118-42 8h84z"/><path d="m1007 137-8-42v84z"/><path d="m1043 137 8-42v84z"/><path d="m825 452-42-8h84z"/><path d="m825 468-42 8h84z"/><path d="m807 487-8-42v84z"/><path d="m843 487 8-42v84z"/><path d="m1025 277-42-8h84z"/><path d="m1025 293-42 8h84z"/><path d="m1007 312-8-42v84z"/><path d="m1043 312 8-42v84z"/></g></svg>