<svg xmlns="http://www.w3.org/2000/svg" viewBox="0 0 1235 650"><path fill="#b22234" d="M0 0h1235v650H0z"/><path fill="#fff" d="M0 50h1235v50H0zm0 100h1235v50H0zm0 100h1235v50H0zm0 100h1235v50H0zm0 100h1235v50H0zm0 100h1235v50H0z"/><path fill="#3c3b6e" d="M0 0h494v350H0z"/><g fill="#fff"><path d="m61.75 35 12 37-32-23h39l-32 23zm123.5 0 12 37-32-23h39l-32 23zm123.5 0 12 37-32-23h39l-32 23zm123.5 0 12 37-32-23h39l-32 23zm0 70 12 37-32-23h39l-32 23zm-123.5 0 12 37-32-23h39l-32 23zm-123.5 0 12 37-32-23h39l-32 23zm-123.5 0 12 37-32-23h39l-32 23zm123.5 70 12 37-32-23h39l-32 23zm123.5 0 12 37-32-23h39l-32 23zm123.5 0 12 37-32-23h39l-32 23zm-123.5 70 12 37-32-23h39l-32 23zm-123.5 0 12 37-32-23h39l-32 23zm-123.5 0 12 37-32-23h39l-32 23zm123.5 70 12 37-32-23h39l-32 23zm123.5 0 12 37-32-23h39l-32 23zm123.5 0 12 37-32-23h39l-32 23zm-123.5 70 12 37-32-23h39l-32 23zm-123.5 0 12 37-32-23h39l-32 23zm-123.5 0 12 37-32-23h39l-32 23z"/><path d="m123.5 70 12 37-32-23h39l-32 23zm123.5 0 12 37-32-23h39l-32 23zm123.5 0 12 37-32-23h39l-32 23zm-123.5 70 12 37-32-23h39l-32 23zm-123.5 0 12 37-32-23h39l-32 23zm123.5 70 12 37-32-23h39l-32 23zm123.5 0 12 37-32-23h39l-32 23zm-123.5 70 12 37-32-23h39l-32 23zm-123.5 0 12 37-32-23h39l-32 23z"/></g></svg>